<?xml version="1.0" encoding="UTF-8"?>
<svg width="48" height="48" viewBox="0 0 48 48" fill="none" xmlns="http://www.w3.org/2000/svg">
    <circle cx="24" cy="24" r="22" fill="#2563eb" fill-opacity="0.1"/>
    <path d="M36 28C38.2091 28 40 26.2091 40 24C40 21.7909 38.2091 20 36 20H35.5C35.5 15.5817 31.9183 12 27.5 12C24.5 12 21.9 13.8 20.5 16.5C19.1 13.8 16.5 12 13.5 12C9.08172 12 5.5 15.5817 5.5 20H5C2.79086 20 1 21.7909 1 24C1 26.2091 2.79086 28 5 28H36Z" fill="#2563eb"/>
    <path d="M36 26C37.1046 26 38 25.1046 38 24C38 22.8954 37.1046 22 36 22H35.5V20C35.5 16.6863 32.8137 14 29.5 14C26.5 14 23.9 15.8 22.5 18.5C21.1 15.8 18.5 14 15.5 14C12.1863 14 9.5 16.6863 9.5 20V22H9C7.89543 22 7 22.8954 7 24C7 25.1046 7.89543 26 9 26H36Z" fill="#2563eb"/>
</svg> 